<svg width="54" height="54" viewBox="0 0 54 54" fill="none" xmlns="http://www.w3.org/2000/svg">
<rect width="54" height="54" fill="#2A2A2A"/>
<g clip-path="url(#clip0_1010_2293)">
<path fill-rule="evenodd" clip-rule="evenodd" d="M37.4229 35.6439C37.0595 35.6439 36.764 35.2697 36.764 34.8099C36.764 34.35 37.0595 33.976 37.4229 33.976C37.7863 33.976 38.0818 34.35 38.0818 34.8099C38.0818 35.2697 37.7863 35.6439 37.4229 35.6439ZM28.4736 36.5782C29.1907 35.2708 30.0407 33.397 30.5636 31.1463C31.6743 31.4348 32.711 31.9023 33.8357 32.6125L28.4736 36.5782ZM23.0612 23.6128C22.8879 24.5278 22.7692 25.5023 22.7424 26.5275C21.7328 26.5279 20.7491 26.5279 19.6441 26.5279V22.0288C20.7491 22.7827 21.9123 23.291 23.0612 23.6128ZM16.5387 19.9678C16.1754 19.9678 15.8797 19.5937 15.8797 19.1339C15.8797 18.674 16.1754 18.3 16.5387 18.3C16.9021 18.3 17.1976 18.674 17.1976 19.1339C17.1976 19.5937 16.9021 19.9678 16.5387 19.9678ZM25.314 17.5335C24.5935 18.8069 23.7688 20.5928 23.2538 22.7589C22.2154 22.473 21.2359 22.0261 20.1814 21.366L25.314 17.5335ZM27.2598 29.8659C27.2604 29.524 27.2612 29.1768 27.262 28.8257C27.8314 28.6812 28.2834 28.1254 28.4187 27.4148C29.1145 27.4156 29.7793 27.4161 30.4315 27.4162C30.4049 28.3665 30.2963 29.2807 30.1313 30.147C29.2493 29.9655 28.313 29.8798 27.2598 29.8659ZM27.2586 30.7552C28.2489 30.7681 29.1247 30.8442 29.9467 31.0061C29.2514 33.9056 27.9864 36.1727 27.2732 37.2935C27.261 35.2198 27.2562 33.0862 27.2586 30.7552ZM23.2555 31.2701C23.7714 33.4449 24.5971 35.2236 25.3183 36.4868L20.0502 32.6337C20.695 32.2502 21.8008 31.6819 23.2555 31.2701ZM25.5176 27.4152C25.6508 28.1142 26.0906 28.6628 26.6471 28.8178C26.6462 29.1724 26.6454 29.523 26.6448 29.8682C25.5598 29.8913 24.5656 30.036 23.6792 30.2455C23.5085 29.3581 23.3969 28.4121 23.3719 27.4167C24.071 27.4165 24.7788 27.416 25.5176 27.4152ZM26.6443 24.0774C26.645 24.4283 26.6458 24.7783 26.6467 25.1278C26.0916 25.2825 25.6527 25.8289 25.5185 26.5256C24.7797 26.5264 24.072 26.5269 23.373 26.5273C23.3999 25.5552 23.5086 24.6312 23.674 23.7633C24.5859 23.9643 25.5522 24.0602 26.6443 24.0774ZM26.6374 17.251C26.6383 19.2016 26.6393 21.1997 26.6426 23.1878C25.6144 23.1718 24.7093 23.0868 23.8588 22.9064C24.5737 19.946 25.8939 17.7392 26.6371 16.6636L26.6374 17.251ZM30.5488 22.7325C30.0274 20.5287 29.1924 18.6969 28.4842 17.4122L33.8819 21.3847C33.2153 21.7678 32.0644 22.3357 30.5488 22.7325ZM27.2524 17.2505L27.2521 16.6536C27.9562 17.7429 29.2287 19.984 29.9338 22.8788C29.1247 23.0525 28.2277 23.17 27.2576 23.1871C27.2543 21.1992 27.2533 19.2011 27.2524 17.2505ZM26.9681 27.9733C26.5321 27.9733 26.1774 27.5244 26.1774 26.9726C26.1774 26.4209 26.5321 25.972 26.9681 25.972C27.4041 25.972 27.7588 26.4209 27.7588 26.9726C27.7588 27.5244 27.4041 27.9733 26.9681 27.9733ZM26.6586 37.3542C25.9246 36.2942 24.5927 34.0814 23.8681 31.1113C24.7024 30.9158 25.634 30.7808 26.6436 30.7578C26.6412 33.1102 26.6461 35.262 26.6586 37.3542ZM28.4176 26.5253C28.281 25.8171 27.8298 25.2635 27.2616 25.1196C27.2608 24.7727 27.26 24.4251 27.2593 24.0767C28.3031 24.0593 29.2625 23.9331 30.123 23.746C30.293 24.6258 30.4051 25.5567 30.4317 26.5268C29.7792 26.5265 29.1138 26.526 28.4176 26.5253ZM34.2104 26.524C33.2058 26.5258 32.0817 26.5268 31.0146 26.5268C30.9888 25.5021 30.8584 24.5226 30.6842 23.5996C32.3225 23.1695 33.6076 22.5461 34.2104 22.1402V26.524ZM19.6441 27.4174C20.7491 27.4174 21.7371 27.4174 22.7462 27.417C22.7706 28.471 22.8798 29.469 23.0556 30.4029C21.4877 30.8469 20.3473 31.4672 19.6441 31.8752V27.4174ZM30.7099 30.2903C30.8784 29.3819 30.9725 28.4202 30.9983 27.4164C32.0651 27.4162 33.2058 27.4153 34.2104 27.4134V31.9011C33.1053 31.1227 31.907 30.6075 30.7099 30.2903ZM37.4229 32.8642C37.01 32.8642 36.6156 33.0723 36.3392 33.4087C35.9217 33.0773 35.5163 32.7748 35.1145 32.4977V21.0347L26.9464 15.0088L19.2591 20.7563C18.8488 20.4656 18.4282 20.1444 17.9798 19.7884C18.0379 19.5834 18.0737 19.3637 18.0737 19.1339C18.0737 18.061 17.3852 17.1882 16.5374 17.1882C15.6896 17.1882 15.0006 18.061 15.0006 19.1339C15.0006 20.2068 15.6907 21.0797 16.5384 21.0797C16.9513 21.0797 17.3029 20.8716 17.5795 20.5352C17.9892 20.8604 18.4386 21.1577 18.7399 21.4306V32.9935L26.9462 38.9786L34.7358 33.226C35.1291 33.5064 35.5426 33.8153 35.9711 34.1554C35.9129 34.3603 35.8825 34.58 35.8825 34.8099C35.8825 35.8828 36.5736 36.7557 37.4214 36.7557C38.2692 36.7557 38.9596 35.8828 38.9596 34.8099C38.9596 33.737 38.2707 32.8642 37.4229 32.8642Z" fill="white"/>
</g>
<defs>
<clipPath id="clip0_1010_2293">
<rect width="24" height="24" fill="white" transform="translate(15 15)"/>
</clipPath>
</defs>
</svg>
