<svg width="56" height="56" viewBox="0 0 56 56" fill="none" xmlns="http://www.w3.org/2000/svg">
<rect x="0.000732422" width="55.9988" height="55.9998" rx="27.9994" fill="url(#paint0_radial_1113_310)"/>
<g filter="url(#filter0_d_1113_310)">
<path d="M27.7634 28.2476C27.7526 28.3249 26.8906 34.4435 24.3728 37.7007C24.1926 37.98 23.9823 38.2477 23.74 38.4966C21.9329 40.3525 19.0865 40.5117 17.3826 38.853C15.679 37.194 15.7622 34.3448 17.5691 32.4888C17.9778 32.069 18.4407 31.7375 18.9304 31.4927C22.2396 29.166 27.7634 28.2476 27.7634 28.2476ZM28.1931 28.2524C28.2405 28.2591 33.7503 29.0327 37.1062 31.2593C37.6033 31.491 38.0763 31.8108 38.4968 32.2202C40.3525 34.0274 40.5112 36.8738 38.8523 38.5776C37.1932 40.2808 34.3439 40.1979 32.488 38.3911C32.2392 38.1488 32.0223 37.8862 31.8347 37.6118C29.2293 34.4215 28.205 28.3233 28.1931 28.2524ZM32.2205 17.5034C34.0276 15.6476 36.874 15.488 38.5779 17.147C40.2816 18.806 40.1974 21.6552 38.3904 23.5112C38.1459 23.7623 37.8823 23.9827 37.6052 24.1714C34.3942 26.7877 28.2517 27.8071 28.2517 27.8071C28.2517 27.8071 29.0228 22.2645 31.2585 18.894C31.4903 18.3966 31.8108 17.9242 32.2205 17.5034ZM17.1472 17.4585C18.8063 15.755 21.6565 15.8391 23.5125 17.646C23.764 17.8909 23.9847 18.1554 24.1736 18.4331C26.7734 21.6258 27.7955 27.7123 27.8074 27.7837C27.773 27.7789 22.2511 27.0062 18.8914 24.7759C18.3954 24.5443 17.9243 24.2253 17.5046 23.8169C15.6487 22.0098 15.4885 19.1625 17.1472 17.4585Z" fill="url(#paint1_radial_1113_310)"/>
</g>
<ellipse cx="27.9845" cy="28.0227" rx="0.269132" ry="6.80519" fill="url(#paint2_radial_1113_310)"/>
<ellipse cx="27.9458" cy="28.0226" rx="0.269132" ry="6.80519" transform="rotate(-90 27.9458 28.0226)" fill="url(#paint3_radial_1113_310)"/>
<defs>
<filter id="filter0_d_1113_310" x="10.0007" y="14" width="35.9988" height="35.9999" filterUnits="userSpaceOnUse" color-interpolation-filters="sRGB">
<feFlood flood-opacity="0" result="BackgroundImageFix"/>
<feColorMatrix in="SourceAlpha" type="matrix" values="0 0 0 0 0 0 0 0 0 0 0 0 0 0 0 0 0 0 127 0" result="hardAlpha"/>
<feOffset dy="4"/>
<feGaussianBlur stdDeviation="3"/>
<feComposite in2="hardAlpha" operator="out"/>
<feColorMatrix type="matrix" values="0 0 0 0 0 0 0 0 0 0 0 0 0 0 0 0 0 0 0.1 0"/>
<feBlend mode="normal" in2="BackgroundImageFix" result="effect1_dropShadow_1113_310"/>
<feBlend mode="normal" in="SourceGraphic" in2="effect1_dropShadow_1113_310" result="shape"/>
</filter>
<radialGradient id="paint0_radial_1113_310" cx="0" cy="0" r="1" gradientUnits="userSpaceOnUse" gradientTransform="translate(28.0001 43.4999) rotate(90) scale(32.9999 32.9993)">
<stop stop-color="#058BF7"/>
<stop offset="1" stop-color="#1AADFE"/>
</radialGradient>
<radialGradient id="paint1_radial_1113_310" cx="0" cy="0" r="1" gradientUnits="userSpaceOnUse" gradientTransform="translate(28 28.0004) rotate(90) scale(40.2458 40.2437)">
<stop stop-color="white"/>
<stop offset="1" stop-color="#A5D6FD"/>
</radialGradient>
<radialGradient id="paint2_radial_1113_310" cx="0" cy="0" r="1" gradientUnits="userSpaceOnUse" gradientTransform="translate(27.9845 28.0227) rotate(90) scale(6.80519 0.269132)">
<stop stop-color="white"/>
<stop offset="1" stop-color="white" stop-opacity="0"/>
</radialGradient>
<radialGradient id="paint3_radial_1113_310" cx="0" cy="0" r="1" gradientUnits="userSpaceOnUse" gradientTransform="translate(27.9458 28.0226) rotate(90) scale(6.80519 0.269132)">
<stop stop-color="white"/>
<stop offset="1" stop-color="white" stop-opacity="0"/>
</radialGradient>
</defs>
</svg>
