<svg width="32" height="30" viewBox="0 0 32 30" fill="none" xmlns="http://www.w3.org/2000/svg">
<path d="M27.7051 6.1198V23.2552C27.7051 24.6071 26.6091 25.7031 25.2571 25.7031H20.6672C20.3292 25.7031 20.0553 25.4292 20.0553 25.0911V17.7473H22.9194C23.2102 17.7475 23.4609 17.5428 23.5191 17.2578L23.9597 15.0547C23.9779 14.9657 23.9556 14.8731 23.8989 14.8022C23.8421 14.7314 23.7567 14.6893 23.666 14.6875H20.0553V10.7096C20.0553 10.5406 20.1923 10.4036 20.3612 10.4036H23.4211C23.7592 10.4036 24.0332 10.1297 24.0332 9.79167V7.95573C24.0332 7.61775 23.7592 7.34375 23.4211 7.34375H20.3612C18.3332 7.34375 16.6892 8.98771 16.6892 11.0156V14.6875H15.1837C14.8457 14.6875 14.5718 14.9614 14.5718 15.2995V17.1355C14.5718 17.4734 14.8457 17.7473 15.1837 17.7473H16.6892V25.0911C16.6892 25.4292 16.4153 25.7031 16.0772 25.7031H8.12132C6.76933 25.7031 5.67334 24.6071 5.67334 23.2552V6.1198C5.67334 4.76784 6.76933 3.67188 8.12132 3.67188H25.2571C26.6091 3.67188 27.7051 4.76784 27.7051 6.1198Z" fill="white"/>
</svg>
