<svg width="39" height="39" viewBox="0 0 39 39" fill="none" xmlns="http://www.w3.org/2000/svg">
<g clip-path="url(#clip0_1027_1548)">
<g clip-path="url(#clip1_1027_1548)">
<path fill-rule="evenodd" clip-rule="evenodd" d="M19.4608 3.00507C10.3984 3.00507 3.05176 10.3517 3.05176 19.4141C3.05176 28.4765 10.3984 35.8231 19.4608 35.8231C28.5232 35.8231 35.8697 28.4765 35.8697 19.4141C35.8697 10.3517 28.5232 3.00507 19.4608 3.00507ZM32.0774 17.5908H27.3918C27.2903 14.3041 26.56 11.0673 25.2404 8.05535C28.932 9.93574 31.4812 13.491 32.0774 17.5908ZM19.4605 32.1767H20.2809C21.9401 31.101 23.8545 27.1081 24.1827 21.2374H14.7383C14.9936 27.1446 16.981 31.1374 18.64 32.1767H19.4605ZM14.8113 17.5906C15.1395 11.7199 17.0538 7.72702 18.713 6.65133H19.4606H20.281C21.9402 7.69056 23.9275 11.6834 24.1827 17.5906H14.8113ZM11.53 17.5908C11.6316 14.3041 12.3619 11.0673 13.6814 8.05535C9.98987 9.93574 7.44062 13.491 6.84436 17.5908H11.53ZM6.84436 21.2373H11.53C11.6316 24.524 12.3619 27.7608 13.6814 30.7728C9.98987 28.8924 7.44062 25.3371 6.84436 21.2373ZM27.3918 21.2373C27.2903 24.524 26.56 27.7608 25.2404 30.7728C28.932 28.8924 31.4812 25.3371 32.0774 21.2373H27.3918Z" fill="#FF3333"/>
</g>
</g>
<defs>
<clipPath id="clip0_1027_1548">
<rect width="38.6094" height="38.6094" fill="white" transform="translate(0.15625 0.109375)"/>
</clipPath>
<clipPath id="clip1_1027_1548">
<rect width="38.6094" height="38.6094" fill="white" transform="translate(0.15625 0.109375)"/>
</clipPath>
</defs>
</svg>
