<svg width="31" height="30" viewBox="0 0 31 30" fill="none" xmlns="http://www.w3.org/2000/svg">
<g clip-path="url(#clip0_1027_1195)">
<path fill-rule="evenodd" clip-rule="evenodd" d="M11.1655 3.67188H20.9574C24.3373 3.67188 27.0774 6.4118 27.0774 9.79167V19.5833C27.0774 22.9632 24.3373 25.7031 20.9574 25.7031H11.1655C7.78553 25.7031 5.04553 22.9632 5.04553 19.5833V9.79167C5.04553 6.4118 7.78553 3.67188 11.1655 3.67188ZM21.8809 10.0957C22.5569 10.0957 23.1049 9.54776 23.1049 8.87178C23.1049 8.19582 22.5569 7.64783 21.8809 7.64783C21.2048 7.64783 20.6568 8.19582 20.6568 8.87178C20.6568 9.54776 21.2048 10.0957 21.8809 10.0957ZM16.0628 9.1797C13.0208 9.1797 10.5548 11.6456 10.5548 14.6875C10.5548 17.7294 13.0208 20.1953 16.0628 20.1953C19.1046 20.1953 21.5707 17.7294 21.5707 14.6875C21.5739 13.2258 20.9947 11.8229 19.9611 10.7893C18.9273 9.75569 17.5245 9.17644 16.0628 9.1797ZM12.6966 14.6856C12.6966 16.5446 14.2036 18.0515 16.0626 18.0515C17.9215 18.0515 19.4285 16.5446 19.4285 14.6856C19.4285 12.8267 17.9215 11.3197 16.0626 11.3197C14.2036 11.3197 12.6966 12.8267 12.6966 14.6856Z" fill="white"/>
</g>
<defs>
<clipPath id="clip0_1027_1195">
<rect width="30.875" height="29.375" fill="white"/>
</clipPath>
</defs>
</svg>
