<svg width="54" height="54" viewBox="0 0 54 54" fill="none" xmlns="http://www.w3.org/2000/svg">
<rect width="54" height="54" fill="#2A2A2A"/>
<path d="M34.98 20.4225L30.48 16.6725C30.3451 16.5607 30.1752 16.4997 30 16.5H20.8425C20.2875 16.5 19.7553 16.7205 19.3629 17.1129C18.9705 17.5053 18.75 18.0375 18.75 18.5925V35.4075C18.75 35.9625 18.9705 36.4947 19.3629 36.8871C19.7553 37.2795 20.2875 37.5 20.8425 37.5H33.1575C33.7125 37.5 34.2447 37.2795 34.6371 36.8871C35.0295 36.4947 35.25 35.9625 35.25 35.4075V21C35.2502 20.8898 35.2261 20.7809 35.1794 20.6811C35.1327 20.5813 35.0647 20.493 34.98 20.4225ZM33.33 21H30V18.225L33.33 21ZM33.75 35.4075C33.75 35.5646 33.6876 35.7153 33.5765 35.8265C33.4653 35.9376 33.3146 36 33.1575 36H20.8425C20.6854 36 20.5347 35.9376 20.4235 35.8265C20.3124 35.7153 20.25 35.5646 20.25 35.4075V18.5925C20.25 18.4354 20.3124 18.2847 20.4235 18.1735C20.5347 18.0624 20.6854 18 20.8425 18H28.5V21.75C28.5 21.9489 28.579 22.1397 28.7197 22.2803C28.8603 22.421 29.0511 22.5 29.25 22.5H33.75V35.4075Z" fill="white"/>
<path d="M28.7325 24.855C28.6998 24.6178 28.5823 24.4004 28.4016 24.2432C28.221 24.086 27.9895 23.9996 27.75 24H26.3325C26.0927 24 25.8613 24.0877 25.6817 24.2466C25.5021 24.4055 25.3868 24.6245 25.3575 24.8625C25.3526 25.1014 25.2702 25.3322 25.1228 25.5202C24.9754 25.7083 24.7708 25.8433 24.54 25.905C24.4174 25.8897 24.2992 25.85 24.1922 25.7882C24.0853 25.7263 23.9919 25.6436 23.9175 25.545C23.8248 25.4312 23.7008 25.3472 23.5609 25.3032C23.4209 25.2592 23.2711 25.2572 23.13 25.2975C22.9869 25.3382 22.8592 25.4206 22.763 25.5341C22.6669 25.6476 22.6066 25.7872 22.59 25.935C22.5375 26.445 22.1025 30.9675 25.08 32.985C25.6279 33.3555 26.2454 33.6107 26.895 33.735H27.045H27.1875C27.8371 33.6107 28.4546 33.3555 29.0025 32.985C32.0025 30.9675 31.5525 26.445 31.4925 25.935C31.4762 25.7881 31.4167 25.6492 31.3217 25.536C31.2267 25.4227 31.1004 25.34 30.9585 25.2983C30.8167 25.2567 30.6657 25.2578 30.5245 25.3017C30.3833 25.3456 30.2582 25.4303 30.165 25.545C30.094 25.647 30.0014 25.7321 29.8938 25.7943C29.7862 25.8565 29.6663 25.8943 29.5425 25.905C29.3112 25.8427 29.1068 25.7062 28.9605 25.5166C28.8142 25.3269 28.7341 25.0945 28.7325 24.855ZM30 27.345C29.9475 28.68 29.6175 30.7425 28.1325 31.7475C27.7914 31.9742 27.4132 32.1392 27.015 32.235C26.614 32.1408 26.233 31.9757 25.89 31.7475C24.39 30.7425 24.075 28.68 24.0225 27.345C24.2035 27.3925 24.3905 27.4127 24.5775 27.405C25.0932 27.3533 25.5799 27.142 25.9698 26.8005C26.3597 26.459 26.6333 26.0044 26.7525 25.5H27.3375C27.4514 26.0004 27.7186 26.4528 28.1017 26.7942C28.4848 27.1357 28.9649 27.3492 29.475 27.405C29.652 27.4098 29.8287 27.3896 30 27.345Z" fill="white"/>
<path d="M26.25 28.5C26.0511 28.5 25.8603 28.579 25.7197 28.7197C25.579 28.8603 25.5 29.0511 25.5 29.25C25.5 29.4489 25.579 29.6397 25.7197 29.7803C25.8603 29.921 26.0511 30 26.25 30H27.75C27.9489 30 28.1397 29.921 28.2803 29.7803C28.421 29.6397 28.5 29.4489 28.5 29.25C28.5 29.0511 28.421 28.8603 28.2803 28.7197C28.1397 28.579 27.9489 28.5 27.75 28.5H26.25Z" fill="white"/>
</svg>
