<svg width="54" height="54" viewBox="0 0 54 54" fill="none" xmlns="http://www.w3.org/2000/svg">
<rect width="54" height="54" fill="#2A2A2A"/>
<path d="M37.425 24.9224C37.3492 24.6368 37.2179 24.3689 37.0385 24.134C36.8591 23.8991 36.6353 23.7018 36.3797 23.5535C36.1241 23.4051 35.8417 23.3086 35.5488 23.2694C35.2559 23.2302 34.9581 23.249 34.6725 23.3249C34.2639 23.4355 33.8947 23.659 33.6075 23.9699L30.3075 23.7149L28.8675 19.9649C29.0617 19.6753 29.1861 19.3446 29.2306 18.9987C29.2751 18.6529 29.2386 18.3014 29.124 17.9721C29.0095 17.6427 28.8199 17.3445 28.5703 17.101C28.3207 16.8575 28.0179 16.6753 27.6859 16.5688C27.3538 16.4624 27.0015 16.4346 26.6569 16.4876C26.3122 16.5406 25.9846 16.673 25.6999 16.8743C25.4152 17.0757 25.1812 17.3404 25.0163 17.6477C24.8515 17.955 24.7603 18.2964 24.75 18.6449C24.7351 19.0747 24.8389 19.5003 25.05 19.8749L23.6775 23.7224L20.415 23.9999C20.0769 23.6244 19.6223 23.3736 19.1244 23.2879C18.6264 23.2021 18.1141 23.2865 17.67 23.5274C17.2799 23.7413 16.9619 24.066 16.7563 24.4605C16.5507 24.8551 16.4667 25.3017 16.5148 25.744C16.563 26.1862 16.7412 26.6043 17.0269 26.9453C17.3126 27.2864 17.693 27.535 18.12 27.6599C18.3247 27.7196 18.5368 27.7499 18.75 27.7499C18.9321 27.7501 19.1135 27.7274 19.29 27.6824L21.6975 29.9999L21.1725 33.0599C20.7792 33.1676 20.4227 33.3802 20.1408 33.6748C19.859 33.9695 19.6626 34.3351 19.5725 34.7328C19.4824 35.1304 19.502 35.5451 19.6293 35.9324C19.7566 36.3198 19.9867 36.6653 20.2951 36.9319C20.6035 37.1986 20.9786 37.3765 21.3803 37.4466C21.7819 37.5166 22.1951 37.4762 22.5756 37.3296C22.956 37.1831 23.2895 36.9359 23.5404 36.6145C23.7913 36.2931 23.9502 35.9096 24 35.5049L27 33.9149L30.06 35.7074C30.1402 36.1002 30.324 36.4644 30.5922 36.7623C30.8605 37.0603 31.2034 37.2811 31.5856 37.4021C31.9678 37.523 32.3754 37.5396 32.7662 37.4502C33.157 37.3608 33.5168 37.1686 33.8084 36.8935C34.1 36.6184 34.3128 36.2704 34.4248 35.8855C34.5368 35.5006 34.5439 35.0927 34.4454 34.7041C34.347 34.3155 34.1464 33.9603 33.8646 33.6752C33.5828 33.3901 33.2299 33.1854 32.8425 33.0824L32.3025 29.9999L34.6875 27.6524C34.8694 27.7114 35.0588 27.7443 35.25 27.7499C35.6444 27.7509 36.0322 27.6482 36.3745 27.4521C36.7168 27.256 37.0014 26.9733 37.2 26.6324C37.3509 26.3773 37.4486 26.0943 37.4873 25.8004C37.5259 25.5066 37.5047 25.2079 37.425 24.9224ZM35.925 25.8749C35.8274 26.0472 35.6656 26.1739 35.475 26.2274C35.3792 26.2519 35.2796 26.2572 35.1817 26.2431C35.0839 26.2289 34.9899 26.1956 34.905 26.1449C34.8194 26.0953 34.7248 26.0632 34.6267 26.0503C34.5286 26.0374 34.429 26.044 34.3335 26.0698C34.238 26.0956 34.1485 26.1401 34.0702 26.2006C33.992 26.2611 33.9265 26.3365 33.8775 26.4224L33.81 26.4674L30.975 29.2499C30.887 29.335 30.8212 29.4403 30.7833 29.5567C30.7454 29.673 30.7365 29.7969 30.7575 29.9174L31.44 33.9074C31.4703 34.0835 31.5626 34.243 31.7001 34.3571C31.8376 34.4712 32.0113 34.5325 32.19 34.5299H32.25C32.3983 34.5299 32.5433 34.5739 32.6667 34.6563C32.79 34.7387 32.8861 34.8559 32.9429 34.9929C32.9997 35.13 33.0145 35.2808 32.9856 35.4262C32.9566 35.5717 32.8852 35.7054 32.7803 35.8103C32.6754 35.9151 32.5418 35.9866 32.3963 36.0155C32.2508 36.0445 32.1 36.0296 31.963 35.9728C31.8259 35.9161 31.7088 35.8199 31.6264 35.6966C31.544 35.5733 31.5 35.4283 31.5 35.2799C31.5 35.2799 31.5 35.2199 31.5 35.1899C31.5035 35.14 31.5035 35.0899 31.5 35.0399C31.4804 34.9959 31.4579 34.9533 31.4325 34.9124C31.412 34.8698 31.3868 34.8296 31.3575 34.7924L31.245 34.6949L31.1775 34.6349L27.4275 32.4374C27.3135 32.3716 27.1841 32.3369 27.0525 32.3369C26.9208 32.3369 26.7915 32.3716 26.6775 32.4374L22.9275 34.4249C22.796 34.4973 22.6893 34.6075 22.6211 34.7412C22.5529 34.8749 22.5264 35.026 22.545 35.1749L22.5 35.2499C22.5 35.3983 22.456 35.5433 22.3736 35.6666C22.2912 35.7899 22.174 35.8861 22.037 35.9428C21.8999 35.9996 21.7491 36.0145 21.6037 35.9855C21.4582 35.9566 21.3245 35.8851 21.2196 35.7803C21.1148 35.6754 21.0433 35.5417 21.0144 35.3962C20.9854 35.2508 21.0003 35.1 21.0571 34.9629C21.1138 34.8259 21.21 34.7087 21.3333 34.6263C21.4566 34.5439 21.6016 34.4999 21.75 34.4999H21.825C22.0037 34.5025 22.1774 34.4412 22.3149 34.3271C22.4524 34.213 22.5446 34.0535 22.575 33.8774L23.25 29.8874C23.265 29.771 23.2525 29.6526 23.2134 29.5419C23.1743 29.4312 23.1098 29.3312 23.025 29.2499L19.995 26.2499C19.956 26.2173 19.9132 26.1896 19.8675 26.1674C19.8266 26.142 19.784 26.1195 19.74 26.0999H19.6125H19.455H19.335L19.1775 26.1449C19.0029 26.2396 18.7979 26.2612 18.6075 26.2049C18.5058 26.1882 18.4086 26.1507 18.3221 26.0947C18.2355 26.0388 18.1615 25.9656 18.1045 25.8797C18.0475 25.7939 18.0088 25.6972 17.9908 25.5957C17.9728 25.4942 17.9759 25.3901 18 25.2899C18.0239 25.1893 18.0685 25.0947 18.1307 25.0121C18.193 24.9295 18.2717 24.8607 18.3619 24.81C18.452 24.7593 18.5517 24.7278 18.6546 24.7174C18.7576 24.7071 18.8615 24.7182 18.96 24.7499C19.055 24.7773 19.1437 24.8232 19.2209 24.885C19.2982 24.9468 19.3624 25.0232 19.41 25.1099L19.5 25.1999C19.5358 25.2531 19.5759 25.3033 19.62 25.3499L19.7175 25.4099L19.8675 25.4849C19.9074 25.4892 19.9476 25.4892 19.9875 25.4849H20.1H20.1675L24.3225 25.1399C24.4649 25.1268 24.6005 25.0732 24.7135 24.9855C24.8264 24.8978 24.912 24.7796 24.96 24.6449L26.6325 19.9724C26.6361 19.94 26.6361 19.9073 26.6325 19.8749C26.6398 19.8227 26.6398 19.7697 26.6325 19.7174C26.6391 19.6702 26.6391 19.6222 26.6325 19.5749C26.636 19.53 26.636 19.4849 26.6325 19.4399C26.6094 19.3923 26.5818 19.3471 26.55 19.3049C26.5353 19.2734 26.5177 19.2432 26.4975 19.2149C26.3645 19.0676 26.2954 18.8735 26.3053 18.6753C26.3151 18.4771 26.4031 18.2909 26.55 18.1574C26.689 18.0493 26.8615 17.9936 27.0375 17.9999C27.1855 18.0075 27.328 18.0588 27.4469 18.1473C27.5658 18.2358 27.6558 18.3576 27.7056 18.4972C27.7553 18.6368 27.7626 18.7881 27.7265 18.9319C27.6903 19.0756 27.6124 19.2054 27.5025 19.3049C27.4608 19.3499 27.4255 19.4004 27.3975 19.4549C27.3975 19.4549 27.345 19.5074 27.3375 19.5449C27.3215 19.5863 27.309 19.629 27.3 19.6724C27.2965 19.7224 27.2965 19.7725 27.3 19.8224C27.2964 19.8548 27.2964 19.8875 27.3 19.9199C27.2927 19.9847 27.2927 20.0501 27.3 20.1149L29.0775 24.6824C29.1278 24.8143 29.2143 24.9293 29.3271 25.0143C29.4399 25.0992 29.5743 25.1505 29.715 25.1624L33.9 25.4999H33.9525H34.05H34.185L34.32 25.4324L34.425 25.3649C34.4687 25.3261 34.5089 25.2835 34.545 25.2374C34.5608 25.2115 34.5811 25.1887 34.605 25.1699C34.6793 25.0419 34.7897 24.9388 34.9225 24.8734C35.0553 24.8081 35.2045 24.7835 35.3512 24.8027C35.4979 24.822 35.6357 24.8842 35.7471 24.9816C35.8586 25.0789 35.9387 25.2071 35.9775 25.3499C36.015 25.5291 35.9856 25.7159 35.895 25.8749H35.925Z" fill="white"/>
<path d="M27 25.5C26.4067 25.5 25.8266 25.6759 25.3333 26.0056C24.8399 26.3352 24.4554 26.8038 24.2284 27.352C24.0013 27.9001 23.9419 28.5033 24.0576 29.0853C24.1734 29.6672 24.4591 30.2018 24.8787 30.6213C25.2982 31.0409 25.8328 31.3266 26.4147 31.4424C26.9967 31.5581 27.5999 31.4987 28.1481 31.2716C28.6962 31.0446 29.1648 30.6601 29.4944 30.1667C29.8241 29.6734 30 29.0933 30 28.5C30 27.7044 29.6839 26.9413 29.1213 26.3787C28.5587 25.8161 27.7957 25.5 27 25.5ZM27 30C26.7033 30 26.4133 29.912 26.1666 29.7472C25.92 29.5824 25.7277 29.3481 25.6142 29.074C25.5007 28.7999 25.4709 28.4983 25.5288 28.2074C25.5867 27.9164 25.7296 27.6491 25.9393 27.4393C26.1491 27.2296 26.4164 27.0867 26.7074 27.0288C26.9983 26.9709 27.2999 27.0006 27.574 27.1142C27.8481 27.2277 28.0824 27.42 28.2472 27.6666C28.412 27.9133 28.5 28.2033 28.5 28.5C28.5 28.8978 28.342 29.2794 28.0607 29.5607C27.7794 29.842 27.3978 30 27 30Z" fill="white"/>
</svg>
