<svg width="39" height="39" viewBox="0 0 39 39" fill="none" xmlns="http://www.w3.org/2000/svg">
<g clip-path="url(#clip0_1027_1523)">
<g clip-path="url(#clip1_1027_1523)">
<path fill-rule="evenodd" clip-rule="evenodd" d="M35.5481 9.65264C35.5481 7.87572 34.1075 6.43521 32.3306 6.43521H6.59099C4.81404 6.43521 3.37354 7.87572 3.37354 9.65264V28.9573C3.37354 30.7343 4.81404 32.1749 6.59099 32.1749H32.3306C34.1075 32.1749 35.5481 30.7343 35.5481 28.9573V9.65264ZM16.2434 26.5443C16.2434 26.9885 15.8832 27.3487 15.439 27.3487H10.6128C10.1685 27.3487 9.80844 26.9885 9.80844 26.5443V24.9356C9.80844 24.4913 10.1685 24.1312 10.6128 24.1312H15.439C15.8832 24.1312 16.2434 24.4913 16.2434 24.9356V26.5443ZM31.5262 19.305C31.9705 19.305 32.3306 18.9449 32.3306 18.5007V15.2832C32.3306 14.8389 31.9705 14.4788 31.5262 14.4788H7.39535C6.95111 14.4788 6.59099 14.8389 6.59099 15.2832V18.5007C6.59099 18.9449 6.95111 19.305 7.39535 19.305H31.5262Z" fill="#FF3333"/>
</g>
</g>
<defs>
<clipPath id="clip0_1027_1523">
<rect width="38.6094" height="38.6094" fill="white" transform="translate(0.15625 -1.52588e-05)"/>
</clipPath>
<clipPath id="clip1_1027_1523">
<rect width="38.6094" height="38.6094" fill="white" transform="translate(0.15625)"/>
</clipPath>
</defs>
</svg>
