<svg width="39" height="39" viewBox="0 0 39 39" fill="none" xmlns="http://www.w3.org/2000/svg">
<g clip-path="url(#clip0_1027_1530)">
<g clip-path="url(#clip1_1027_1530)">
<g clip-path="url(#clip2_1027_1530)">
<path d="M19.5292 21.6267C20.7391 21.6267 21.72 20.6458 21.72 19.4359C21.72 18.226 20.7391 17.2451 19.5292 17.2451C18.3192 17.2451 17.3384 18.226 17.3384 19.4359C17.3384 20.6458 18.3192 21.6267 19.5292 21.6267Z" fill="#FF3333"/>
<path d="M19.4602 3.00507C15.1025 3.00507 10.9232 4.73618 7.8418 7.81756C4.76041 10.899 3.0293 15.0782 3.0293 19.436C3.0293 23.7937 4.76041 27.973 7.8418 31.0544C10.9232 34.1357 15.1025 35.8669 19.4602 35.8669C23.818 35.8669 27.9973 34.1357 31.0786 31.0544C34.16 27.973 35.8911 23.7937 35.8911 19.436C35.8911 15.0782 34.16 10.899 31.0786 7.81756C27.9973 4.73618 23.818 3.00507 19.4602 3.00507ZM30.1513 10.3442L24.7838 18.012C25.1692 19.3874 24.9951 20.8595 24.2994 22.1072C23.6039 23.3547 22.4431 24.2767 21.0704 24.672C20.5688 24.8176 20.0483 24.8878 19.526 24.8801C18.0807 24.9007 16.6861 24.3492 15.6457 23.3458C14.6055 22.3425 14.004 20.9686 13.9723 19.5236C13.9607 18.8043 14.0909 18.0899 14.3555 17.4208C14.6201 16.7519 15.0138 16.1416 15.5143 15.6249C16.0147 15.1081 16.6121 14.6951 17.2722 14.4092C17.9324 14.1234 18.6423 13.9704 19.3616 13.959C19.8944 13.9566 20.4251 14.0266 20.939 14.1671L28.6067 8.7997C28.7161 8.70619 28.8427 8.63513 28.9795 8.59058C29.1163 8.54603 29.2606 8.52885 29.404 8.54004C29.5473 8.55124 29.6872 8.59056 29.8154 8.65579C29.9437 8.72101 30.0577 8.81086 30.1513 8.92019C30.321 9.1186 30.4142 9.37111 30.4142 9.63219C30.4142 9.89327 30.321 10.1458 30.1513 10.3442Z" fill="#FF3333"/>
</g>
</g>
</g>
<defs>
<clipPath id="clip0_1027_1530">
<rect width="38.6094" height="38.6094" fill="white" transform="translate(0.15625 0.109375)"/>
</clipPath>
<clipPath id="clip1_1027_1530">
<rect width="38.6094" height="38.6094" fill="white" transform="translate(0.15625 0.109375)"/>
</clipPath>
<clipPath id="clip2_1027_1530">
<rect width="38.6094" height="38.6094" fill="white" transform="translate(0.15625 0.109375)"/>
</clipPath>
</defs>
</svg>
