<svg width="32" height="31" viewBox="0 0 32 31" fill="none" xmlns="http://www.w3.org/2000/svg">
<g clip-path="url(#clip0_1027_1211)">
<path fill-rule="evenodd" clip-rule="evenodd" d="M26.8008 24.4583C26.8008 25.6826 25.9462 26.7072 24.8013 26.9673V27.0257H24.3989C24.3427 27.0294 24.2862 27.0312 24.2291 27.0312H19.4074C19.3788 27.0312 19.3506 27.0294 19.3228 27.0257H14.6702C14.6425 27.0294 14.6143 27.0312 14.5856 27.0312H6.22787C4.8076 27.0312 3.65625 25.8793 3.65625 24.4583V6.44792C3.65625 5.02693 4.8076 3.875 6.22787 3.875H24.2291C25.6494 3.875 26.8008 5.02693 26.8008 6.44792V24.4583ZM20.341 10.4283C20.4482 10.4983 20.5589 10.5628 20.6726 10.6217C21.4123 10.9915 22.135 11.104 22.4908 11.0653V13.9442C22.4908 13.9442 21.4752 13.902 20.7213 13.7015C19.6707 13.4197 18.9972 12.987 18.9972 12.987C18.9972 12.987 18.5297 12.6771 18.4947 12.656V18.605C18.4947 18.9357 18.4074 19.7631 18.1455 20.4529C17.9161 21.0427 17.588 21.5891 17.1754 22.0686C17.1754 22.0686 16.5297 22.871 15.3956 23.4095C14.4502 23.8585 13.6091 23.8832 13.2751 23.893C13.2478 23.8937 13.2239 23.8945 13.2036 23.8953C13.2036 23.8953 11.6507 23.958 10.2501 23.0039L10.2431 22.9968V23.0039C9.76958 22.6728 9.34731 22.2734 8.9899 21.8188C8.54666 21.2521 8.2747 20.5799 8.20451 20.3829V20.3758C8.09291 20.0413 7.85884 19.2319 7.89393 18.4506C7.94972 17.0742 8.41051 16.2261 8.53264 16.0151C8.85356 15.4363 9.27279 14.9181 9.77144 14.4838C10.3405 14.0056 11.0023 13.6508 11.7151 13.4418C12.4278 13.2328 13.176 13.1741 13.9125 13.2695L13.909 16.2222C13.6664 16.143 13.4128 16.1027 13.1576 16.1029C11.8097 16.1029 10.7172 17.2047 10.7172 18.5653C10.7172 19.926 11.8097 21.0278 13.1576 21.0278C13.5773 21.0282 13.9899 20.9191 14.3547 20.7111C14.7047 20.5118 15.0005 20.2293 15.216 19.8885C15.4315 19.5478 15.5602 19.1591 15.5907 18.7568V18.7504C15.5924 18.7419 15.5924 18.7334 15.5924 18.7254C15.5928 18.7189 15.5932 18.7129 15.5936 18.7069C15.5944 18.6945 15.5952 18.6828 15.5952 18.6705C15.6016 18.5235 15.6016 18.3747 15.6016 18.2242V7.01053H18.4947C18.4901 7.01053 18.46 7.28842 18.533 7.71792H18.5294C18.6167 8.23537 18.854 8.97442 19.4893 9.70293C19.7431 9.97808 20.029 10.2216 20.341 10.4283Z" fill="white"/>
</g>
<defs>
<clipPath id="clip0_1027_1211">
<rect width="30.875" height="30.875" fill="white" transform="translate(0.5625 0.015625)"/>
</clipPath>
</defs>
</svg>
