<svg width="32" height="30" viewBox="0 0 32 30" fill="none" xmlns="http://www.w3.org/2000/svg">
<g clip-path="url(#clip0_1027_1199)">
<path d="M28.3477 7.91164C27.7161 8.75414 26.9526 9.48908 26.0868 10.088C26.0868 10.3081 26.0868 10.5282 26.0868 10.7605C26.0937 14.7573 24.4971 18.5897 21.6551 21.3985C18.813 24.2072 14.9633 25.7576 10.9687 25.702C8.65935 25.7096 6.37958 25.1823 4.30798 24.1614C4.19627 24.1125 4.12423 24.002 4.12464 23.8801V23.7456C4.12464 23.5701 4.26691 23.4277 4.44241 23.4277C6.71244 23.3528 8.90148 22.5659 10.6998 21.1779C8.64513 21.1365 6.79644 19.9193 5.94566 18.0479C5.90268 17.9456 5.91606 17.8283 5.98095 17.7384C6.04586 17.6485 6.15291 17.599 6.26342 17.6077C6.88787 17.6704 7.51858 17.6124 8.12108 17.4364C5.85288 16.9657 4.14857 15.0826 3.90466 12.778C3.896 12.6674 3.94554 12.5603 4.0354 12.4954C4.12526 12.4305 4.24245 12.4171 4.34464 12.4601C4.95332 12.7287 5.61039 12.8701 6.27564 12.8758C4.28815 11.5713 3.42968 9.09024 4.18576 6.83566C4.26379 6.61658 4.4513 6.45474 4.67936 6.40961C4.9074 6.36449 5.14238 6.44271 5.29791 6.61557C7.9799 9.46994 11.665 11.1708 15.5762 11.3596C15.476 10.9599 15.4267 10.5491 15.4295 10.137C15.4661 7.97599 16.8033 6.05095 18.8149 5.26309C20.8266 4.47522 23.1145 4.98044 24.6078 6.54222C25.6259 6.3483 26.6099 6.00641 27.5288 5.52737C27.5961 5.48535 27.6816 5.48535 27.7488 5.52737C27.7909 5.59472 27.7909 5.68012 27.7488 5.74747C27.3037 6.7667 26.5518 7.62158 25.5978 8.19286C26.4333 8.09598 27.2539 7.89894 28.0422 7.60596C28.1086 7.56078 28.1958 7.56078 28.2622 7.60596C28.3177 7.6314 28.3593 7.68005 28.3757 7.73894C28.3923 7.79784 28.382 7.86101 28.3477 7.91164Z" fill="white"/>
</g>
<defs>
<clipPath id="clip0_1027_1199">
<rect width="30.875" height="29.375" fill="white" transform="translate(0.890625)"/>
</clipPath>
</defs>
</svg>
