<svg width="32" height="30" viewBox="0 0 32 30" fill="none" xmlns="http://www.w3.org/2000/svg">
<g clip-path="url(#clip0_1027_1207)">
<path fill-rule="evenodd" clip-rule="evenodd" d="M23.7815 5.312L25.5685 5.4956C27.6842 5.73473 29.2728 7.5405 29.2405 9.6693V19.7058C29.2728 21.8346 27.6842 23.6403 25.5685 23.8795L23.8549 24.0631C18.5081 24.6138 13.1187 24.6138 7.77173 24.0631L5.98471 23.8795C3.86905 23.6403 2.28037 21.8346 2.31274 19.7058V9.6693C2.28037 7.5405 3.86905 5.73473 5.98471 5.4956L7.69829 5.312C13.0452 4.76125 18.4346 4.76125 23.7815 5.312ZM14.6873 18.6286L19.4485 15.4464H19.522C19.7786 15.2793 19.9334 14.9937 19.9334 14.6875C19.9334 14.3813 19.7786 14.0958 19.522 13.9286L14.7607 10.7464C14.4796 10.5564 14.1166 10.5369 13.8168 10.6958C13.517 10.8546 13.3293 11.1659 13.3286 11.5052V17.8698C13.3444 18.1856 13.5217 18.4712 13.7978 18.6254C14.074 18.7796 14.41 18.7809 14.6873 18.6286Z" fill="white"/>
</g>
<defs>
<clipPath id="clip0_1027_1207">
<rect width="30.875" height="29.375" fill="white" transform="translate(0.671875)"/>
</clipPath>
</defs>
</svg>
